<svg width="40" height="33" viewBox="0 0 40 33" fill="none" xmlns="http://www.w3.org/2000/svg">
<path d="M0 2.93478C0 1.31395 1.31395 0 2.93478 0H37.0652C38.6861 0 40 1.31395 40 2.93478C40 4.55562 38.6861 5.86957 37.0652 5.86957H2.93478C1.31395 5.86957 0 4.55562 0 2.93478Z" fill="#292226"/>
<path d="M0 15.7608C0 14.14 1.31395 12.826 2.93478 12.826H37.0652C38.6861 12.826 40 14.14 40 15.7608C40 17.3817 38.6861 18.6956 37.0652 18.6956H2.93478C1.31395 18.6956 0 17.3817 0 15.7608Z" fill="#292226"/>
<rect y="26.3043" width="40" height="5.86957" rx="2.93478" fill="#292226"/>
</svg>
