<svg width="97" height="49" viewBox="0 0 97 49" fill="none" xmlns="http://www.w3.org/2000/svg">
<path d="M12 1.5L84.5459 1.5C90.3449 1.5 95.0459 6.20101 95.0459 12L95.0459 36.2734C95.0458 42.0723 90.3448 46.7734 84.5459 46.7734L12 46.7734C6.2011 46.7734 1.50015 42.0723 1.5 36.2734L1.5 12C1.5 6.20101 6.20101 1.5 12 1.5Z" fill="#246DED" stroke="black" stroke-width="3"/>
<path d="M79.7893 15.9536C79.7893 16.4261 79.4063 16.8099 78.9338 16.8101C78.4612 16.8101 78.0774 16.4263 78.0774 15.9536C78.0776 15.4811 78.4613 15.0981 78.9338 15.0981C79.4062 15.0983 79.7891 15.4812 79.7893 15.9536Z" fill="black" stroke="black" stroke-width="3"/>
<path d="M79.7893 33.6875C79.7893 34.16 79.4063 34.5438 78.9338 34.5439C78.4612 34.5439 78.0774 34.1601 78.0774 33.6875C78.0776 33.215 78.4613 32.832 78.9338 32.832C79.4062 32.8322 79.7891 33.2151 79.7893 33.6875Z" fill="black" stroke="black" stroke-width="3"/>
<path d="M65.6937 24.8424L69.7948 20.7413C69.9493 20.5872 70.1996 20.5871 70.3541 20.7413C70.5086 20.8958 70.509 21.1467 70.3548 21.3013L66.2537 25.4024C66.0991 25.5568 65.8482 25.5562 65.6937 25.4017C65.5394 25.2472 65.5394 24.9969 65.6937 24.8424Z" fill="black" stroke="black" stroke-width="3"/>
<path d="M66.2535 24.8414L70.3546 28.9425C70.5088 29.097 70.5089 29.3474 70.3546 29.5018C70.2002 29.6563 69.9492 29.6568 69.7946 29.5025L65.6935 25.4014C65.5392 25.2468 65.5397 24.9959 65.6942 24.8414C65.8487 24.6871 66.099 24.6871 66.2535 24.8414Z" fill="black" stroke="black" stroke-width="3"/>
</svg>
