<svg width="49" height="108" viewBox="0 0 49 108" fill="none" xmlns="http://www.w3.org/2000/svg">
<path d="M46.7742 24.1368L46.7768 83.8428C46.7774 96.3447 36.643 106.48 24.1411 106.481C11.6393 106.481 1.50395 96.3466 1.50341 83.8448L1.50081 24.1388C1.50026 11.637 11.6348 1.50167 24.1365 1.50105C36.6384 1.50051 46.7737 11.6349 46.7742 24.1368Z" fill="#246DED" stroke="black" stroke-width="3"/>
<path d="M13.1021 24.8426C14.1843 24.1203 14.4761 22.6575 13.7538 21.5753C13.0315 20.4932 11.5687 20.2014 10.4866 20.9237C9.40438 21.6459 9.11261 23.1087 9.83488 24.1909C10.5571 25.2731 12.0199 25.5648 13.1021 24.8426Z" fill="black"/>
<path d="M27.8529 14.9979C28.935 14.2756 29.2268 12.8128 28.5045 11.7306C27.7823 10.6484 26.3195 10.3567 25.2373 11.0789C24.1551 11.8012 23.8633 13.264 24.5856 14.3462C25.3079 15.4284 26.7707 15.7201 27.8529 14.9979Z" fill="black"/>
<path d="M31.783 20.5714L16.651 30.6708C15.699 31.3062 15.4423 32.593 16.0777 33.5451C16.7131 34.4971 18 34.7538 18.952 34.1184L34.084 24.019C35.036 23.3836 35.2926 22.0967 34.6572 21.1447C34.0219 20.1927 32.735 19.936 31.783 20.5714Z" fill="black"/>
<path d="M31.783 20.5714L16.651 30.6708C15.699 31.3062 15.4423 32.593 16.0777 33.5451C16.7131 34.4971 18 34.7538 18.952 34.1184L34.084 24.019C35.036 23.3836 35.2926 22.0967 34.6572 21.1447C34.0219 20.1927 32.735 19.936 31.783 20.5714Z" fill="black"/>
<path d="M37.3626 25.1998L32.4671 17.8649C31.8317 16.9129 30.5449 16.6562 29.5929 17.2916C28.6409 17.927 28.3842 19.2138 29.0196 20.1659L33.915 27.5007C34.5504 28.4527 35.8373 28.7094 36.7893 28.074C37.7413 27.4386 37.998 26.1518 37.3626 25.1998Z" fill="black"/>
<path d="M37.3626 25.1998L32.4671 17.8649C31.8317 16.9129 30.5449 16.6562 29.5929 17.2916C28.6409 17.927 28.3842 19.2138 29.0196 20.1659L33.915 27.5007C34.5504 28.4527 35.8373 28.7094 36.7893 28.074C37.7413 27.4386 37.998 26.1518 37.3626 25.1998Z" fill="black"/>
</svg>
