<svg width="97" height="97" viewBox="0 0 97 97" fill="none" xmlns="http://www.w3.org/2000/svg">
<path d="M1.50049 84.5464L1.50048 12.0005C1.50048 6.20151 6.20149 1.50049 12.0005 1.50049L84.5464 1.50048C90.3454 1.50048 95.0464 6.20149 95.0464 12.0005L95.0464 36.2729C95.0464 42.0719 90.3454 46.7729 84.5464 46.7729L60.2739 46.7729C52.8182 46.7729 46.7741 52.8172 46.7739 60.2729L46.7739 84.5464C46.7739 90.3453 42.0728 95.0462 36.2739 95.0464L12.0005 95.0464C6.2015 95.0464 1.50049 90.3454 1.50049 84.5464Z" fill="#246DED" stroke="black" stroke-width="3"/>
<path d="M15.7893 63.7822C16.2618 63.7822 16.6456 64.1652 16.6458 64.6377C16.6458 65.1103 16.2619 65.4941 15.7893 65.4941C15.3168 65.494 14.9338 65.1102 14.9338 64.6377C14.934 64.1653 15.3169 63.7824 15.7893 63.7822Z" fill="black" stroke="black" stroke-width="3"/>
<path d="M33.5236 63.7822C33.9961 63.7822 34.3798 64.1652 34.38 64.6377C34.38 65.1103 33.9962 65.4941 33.5236 65.4941C33.0511 65.494 32.6681 65.1102 32.6681 64.6377C32.6683 64.1653 33.0512 63.7824 33.5236 63.7822Z" fill="black" stroke="black" stroke-width="3"/>
<path d="M15.5063 75.3115H33.6987C34.0148 75.3115 34.2719 75.5677 34.272 75.8838C34.272 76.1999 34.0149 76.4561 33.6987 76.4561H15.5063C15.1903 76.456 14.9341 76.1999 14.9341 75.8838C14.9342 75.5678 15.1903 75.3116 15.5063 75.3115Z" fill="black" stroke="black" stroke-width="3"/>
<path d="M15.5063 75.3115H33.6987C34.0148 75.3115 34.2719 75.5677 34.272 75.8838C34.272 76.1999 34.0149 76.4561 33.6987 76.4561H15.5063C15.1903 76.456 14.9341 76.1999 14.9341 75.8838C14.9342 75.5678 15.1903 75.3116 15.5063 75.3115Z" fill="black" stroke="black" stroke-width="3"/>
<path d="M34.2708 71.9399V80.7583C34.2708 81.0744 34.0146 81.3305 33.6985 81.3306C33.3823 81.3306 33.1262 81.0745 33.1262 80.7583V71.9399C33.1263 71.6239 33.3824 71.3677 33.6985 71.3677C34.0145 71.3678 34.2707 71.6239 34.2708 71.9399Z" fill="black" stroke="black" stroke-width="3"/>
<path d="M34.2708 71.9399V80.7583C34.2708 81.0744 34.0146 81.3305 33.6985 81.3306C33.3823 81.3306 33.1262 81.0745 33.1262 80.7583V71.9399C33.1263 71.6239 33.3824 71.3677 33.6985 71.3677C34.0145 71.3678 34.2707 71.6239 34.2708 71.9399Z" fill="black" stroke="black" stroke-width="3"/>
</svg>
