<svg width="101" height="117" viewBox="0 0 101 117" fill="none" xmlns="http://www.w3.org/2000/svg">
<path d="M85.4462 46.0403L52.3035 95.7029C45.3638 106.102 31.3079 108.906 20.9091 101.966C10.5103 95.0264 7.70606 80.9705 14.6458 70.5717L47.7885 20.9091C54.7282 10.5103 68.7841 7.70618 79.183 14.6458C89.5818 21.5856 92.386 35.6415 85.4462 46.0403Z" fill="#246DED" stroke="black" stroke-width="3"/>
<path d="M57.0478 27.9342C58.3489 27.9342 59.4036 26.8795 59.4036 25.5785C59.4036 24.2774 58.3489 23.2227 57.0478 23.2227C55.7467 23.2227 54.692 24.2774 54.692 25.5785C54.692 26.8795 55.7467 27.9342 57.0478 27.9342Z" fill="black"/>
<path d="M74.7821 27.9342C76.0831 27.9342 77.1379 26.8795 77.1379 25.5785C77.1379 24.2774 76.0831 23.2227 74.7821 23.2227C73.481 23.2227 72.4263 24.2774 72.4263 25.5785C72.4263 26.8795 73.481 27.9342 74.7821 27.9342Z" fill="black"/>
<path d="M74.9568 34.752H56.7641C55.6195 34.752 54.6917 35.6798 54.6917 36.8244C54.6917 37.969 55.6195 38.8968 56.7641 38.8968H74.9568C76.1014 38.8968 77.0292 37.969 77.0292 36.8244C77.0292 35.6798 76.1014 34.752 74.9568 34.752Z" fill="black"/>
<path d="M74.9568 34.752H56.7641C55.6195 34.752 54.6917 35.6798 54.6917 36.8244C54.6917 37.969 55.6195 38.8968 56.7641 38.8968H74.9568C76.1014 38.8968 77.0292 37.969 77.0292 36.8244C77.0292 35.6798 76.1014 34.752 74.9568 34.752Z" fill="black"/>
<path d="M77.0283 41.699V32.8805C77.0283 31.736 76.1005 30.8081 74.9559 30.8081C73.8113 30.8081 72.8834 31.736 72.8834 32.8805V41.699C72.8834 42.8436 73.8113 43.7715 74.9559 43.7715C76.1005 43.7715 77.0283 42.8436 77.0283 41.699Z" fill="black"/>
<path d="M77.0283 41.699V32.8805C77.0283 31.736 76.1005 30.8081 74.9559 30.8081C73.8113 30.8081 72.8834 31.736 72.8834 32.8805V41.699C72.8834 42.8436 73.8113 43.7715 74.9559 43.7715C76.1005 43.7715 77.0283 42.8436 77.0283 41.699Z" fill="black"/>
</svg>
