<svg width="96" height="96" viewBox="0 0 96 96" fill="none" xmlns="http://www.w3.org/2000/svg">
<path d="M56.5951 2.3916C47.6541 0.600609 38.3861 1.51977 29.9633 5.0332C21.5403 8.54669 14.3399 14.4979 9.27283 22.1348C4.20578 29.7716 1.50045 38.7508 1.50037 47.9375V80.876C1.50041 88.3318 7.54455 94.376 15.0004 94.376H47.6029C56.7187 94.3759 65.631 91.654 73.2123 86.5527C80.7935 81.4514 86.704 74.1993 90.1947 65.7129C93.6854 57.2262 94.5984 47.8861 92.8187 38.876C91.039 29.8661 86.6469 21.5913 80.1986 15.0977C73.7504 8.604 65.5361 4.18262 56.5951 2.3916Z" fill="#246DED" stroke="black" stroke-width="3"/>
<path d="M53.7517 24.7231C54.2242 24.7231 54.608 25.1061 54.6082 25.5786C54.6082 26.0513 54.2244 26.4351 53.7517 26.4351C53.2792 26.4349 52.8962 26.0511 52.8962 25.5786C52.8964 25.1062 53.2793 24.7233 53.7517 24.7231Z" fill="black" stroke="black" stroke-width="3"/>
<path d="M71.4852 24.7231C71.9578 24.7231 72.3415 25.1061 72.3417 25.5786C72.3417 26.0513 71.9579 26.4351 71.4852 26.4351C71.0127 26.4349 70.6298 26.0511 70.6298 25.5786C70.6299 25.1062 71.0128 24.7233 71.4852 24.7231Z" fill="black" stroke="black" stroke-width="3"/>
<path d="M62.639 38.8192L58.538 34.7181C58.3838 34.5636 58.3837 34.3133 58.538 34.1588C58.6924 34.0044 58.9434 34.0039 59.098 34.1581L63.1991 38.2592C63.3534 38.4138 63.3529 38.6647 63.1984 38.8192C63.0438 38.9735 62.7936 38.9735 62.639 38.8192Z" fill="black" stroke="black" stroke-width="3"/>
<path d="M62.6382 38.2594L66.7393 34.1583C66.8938 34.0042 67.1441 34.0041 67.2986 34.1583C67.453 34.3128 67.4535 34.5637 67.2993 34.7183L63.1982 38.8194C63.0436 38.9738 62.7927 38.9732 62.6382 38.8187C62.4839 38.6642 62.4839 38.4139 62.6382 38.2594Z" fill="black" stroke="black" stroke-width="3"/>
</svg>
