<svg width="66" height="33" viewBox="0 0 66 33" fill="none" xmlns="http://www.w3.org/2000/svg">
<path d="M12 1H53.1904C59.2654 1.00021 64.1904 5.925 64.1904 12V20.5947C64.1904 26.6697 59.2654 31.5945 53.1904 31.5947H12C5.92487 31.5947 1 26.6699 1 20.5947V12L1.01465 11.4336C1.30944 5.6217 6.11484 1 12 1Z" fill="#246DED" stroke="black" stroke-width="2"/>
<path d="M41.1562 10.3284C41.4823 10.3285 41.747 10.5931 41.747 10.9193C41.7469 11.2454 41.4823 11.51 41.1562 11.5101C40.83 11.5101 40.5654 11.2454 40.5654 10.9193C40.5654 10.593 40.83 10.3284 41.1562 10.3284Z" fill="black" stroke="black" stroke-width="2"/>
<path d="M53.1304 10.3284C53.4565 10.3284 53.7212 10.593 53.7212 10.9192C53.7211 11.2453 53.4565 11.5099 53.1304 11.51C52.8042 11.51 52.5396 11.2453 52.5396 10.9192C52.5396 10.593 52.8041 10.3284 53.1304 10.3284Z" fill="black" stroke="black" stroke-width="2"/>
<path d="M40.9647 18.1132H53.2489C53.4694 18.1133 53.6483 18.2921 53.6483 18.5126C53.6483 18.7331 53.4694 18.912 53.2489 18.912H40.9647C40.7442 18.912 40.5653 18.7332 40.5653 18.5126C40.5653 18.2921 40.7442 18.1132 40.9647 18.1132Z" fill="black" stroke="black" stroke-width="2"/>
<path d="M40.9647 18.1132H53.2489C53.4694 18.1133 53.6483 18.2921 53.6483 18.5126C53.6483 18.7331 53.4694 18.912 53.2489 18.912H40.9647C40.7442 18.912 40.5653 18.7332 40.5653 18.5126C40.5653 18.2921 40.7442 18.1132 40.9647 18.1132Z" fill="black" stroke="black" stroke-width="2"/>
<path d="M53.6476 15.8498V21.8039C53.6476 22.0244 53.4687 22.2033 53.2482 22.2033C53.0276 22.2033 52.8488 22.0244 52.8488 21.8039V15.8498C52.8488 15.6293 53.0276 15.4504 53.2482 15.4504C53.4687 15.4504 53.6476 15.6292 53.6476 15.8498Z" fill="black" stroke="black" stroke-width="2"/>
<path d="M53.6476 15.8498V21.8039C53.6476 22.0244 53.4687 22.2033 53.2482 22.2033C53.0276 22.2033 52.8488 22.0244 52.8488 21.8039V15.8498C52.8488 15.6293 53.0276 15.4504 53.2482 15.4504C53.4687 15.4504 53.6476 15.6292 53.6476 15.8498Z" fill="black" stroke="black" stroke-width="2"/>
</svg>
