<svg width="68" height="79" viewBox="0 0 68 79" fill="none" xmlns="http://www.w3.org/2000/svg">
<path d="M57.7056 31.0947L35.3271 64.6277C30.6373 71.6551 21.1382 73.5502 14.1108 68.8604C7.08361 64.1705 5.18914 54.6719 9.87887 47.6446L32.2573 14.1117C36.9471 7.08434 46.4455 5.18884 53.4729 9.87839C60.5003 14.5682 62.3954 24.0673 57.7056 31.0947Z" fill="#246DED" stroke="black" stroke-width="2"/>
<path d="M37.6177 19.6567C37.9439 19.6568 38.2085 19.9214 38.2085 20.2476C38.2085 20.5737 37.9438 20.8383 37.6177 20.8384C37.2915 20.8384 37.027 20.5737 37.0269 20.2476C37.0269 19.9213 37.2915 19.6567 37.6177 19.6567Z" fill="black" stroke="black" stroke-width="2"/>
<path d="M49.5919 19.6567C49.9181 19.6568 50.1827 19.9214 50.1827 20.2476C50.1827 20.5737 49.918 20.8383 49.5919 20.8384C49.2657 20.8384 49.0012 20.5737 49.0011 20.2476C49.0011 19.9213 49.2657 19.6567 49.5919 19.6567Z" fill="black" stroke="black" stroke-width="2"/>
<path d="M43.9182 26.0171L46.6431 28.7419C46.7445 28.8434 46.7445 29.0078 46.6431 29.1093C46.5416 29.2108 46.3772 29.2108 46.2757 29.1093L43.5508 26.3844C43.4494 26.283 43.4494 26.1185 43.5508 26.0171C43.6395 25.9284 43.7767 25.9169 43.8775 25.9832L43.9182 26.0171Z" fill="black" stroke="black" stroke-width="2"/>
<path d="M43.9183 26.3844L41.1935 29.1092C41.092 29.2107 40.9276 29.2106 40.8261 29.1092C40.7246 29.0078 40.7246 28.8433 40.8261 28.7418L43.5509 26.017C43.6524 25.9156 43.8169 25.9156 43.9183 26.017C44.007 26.1057 44.0185 26.2428 43.9521 26.3436L43.9183 26.3844Z" fill="black" stroke="black" stroke-width="2"/>
</svg>
