<svg width="49" height="100" viewBox="0 0 49 100" fill="none" xmlns="http://www.w3.org/2000/svg">
<path d="M47.4438 49.6143C47.4438 62.3814 42.4402 74.622 33.5405 83.6436C26.9458 90.3285 18.6117 94.8401 9.6206 96.7285C5.36271 97.6226 1.50066 94.031 1.50048 89.2285L1.50049 10C1.50049 5.19737 5.36266 1.60504 9.62061 2.49902C18.6118 4.38744 26.9457 8.89989 33.5405 15.585C42.4402 24.6066 47.4438 36.8471 47.4438 49.6143Z" fill="#246DED" stroke="black" stroke-width="3"/>
<path d="M13.4509 29.3009C14.752 29.3009 15.8067 28.2462 15.8067 26.9452C15.8067 25.6441 14.752 24.5894 13.4509 24.5894C12.1498 24.5894 11.0951 25.6441 11.0951 26.9452C11.0951 28.2462 12.1498 29.3009 13.4509 29.3009Z" fill="black"/>
<path d="M31.1851 29.3009C32.4862 29.3009 33.5409 28.2462 33.5409 26.9452C33.5409 25.6441 32.4862 24.5894 31.1851 24.5894C29.8841 24.5894 28.8293 25.6441 28.8293 26.9452C28.8293 28.2462 29.8841 29.3009 31.1851 29.3009Z" fill="black"/>
<path d="M19.8516 33.2434C17.3185 34.7059 16.4505 37.9451 17.9131 40.4782C19.3756 43.0114 22.6147 43.8793 25.1479 42.4168C27.6811 40.9543 28.549 37.7151 27.0865 35.1819C25.624 32.6488 22.3848 31.7808 19.8516 33.2434Z" fill="black"/>
</svg>
