<svg width="49" height="97" viewBox="0 0 49 97" fill="none" xmlns="http://www.w3.org/2000/svg">
<path d="M1.5 84.5464L1.5 12.0005C1.5 6.20151 6.20101 1.50049 12 1.50049L36.2734 1.50049C42.0723 1.50063 46.7734 6.20158 46.7734 12.0005L46.7734 84.5464C46.7734 90.3453 42.0723 95.0462 36.2734 95.0464L12 95.0464C6.20101 95.0464 1.5 90.3454 1.5 84.5464Z" fill="#246DED" stroke="black" stroke-width="3"/>
<path d="M15.9539 16.7573C16.4264 16.7573 16.8101 17.1403 16.8103 17.6128C16.8103 18.0854 16.4265 18.4692 15.9539 18.4692C15.4814 18.4691 15.0984 18.0853 15.0984 17.6128C15.0986 17.1404 15.4815 16.7575 15.9539 16.7573Z" fill="black" stroke="black" stroke-width="3"/>
<path d="M33.6876 16.7573C34.1602 16.7573 34.5439 17.1403 34.5441 17.6128C34.5441 18.0854 34.1603 18.4692 33.6876 18.4692C33.2151 18.4691 32.8322 18.0853 32.8322 17.6128C32.8323 17.1404 33.2152 16.7575 33.6876 16.7573Z" fill="black" stroke="black" stroke-width="3"/>
<path d="M24.8419 30.8529L20.7408 26.7518C20.5867 26.5973 20.5866 26.347 20.7408 26.1925C20.8953 26.038 21.1463 26.0376 21.3009 26.1918L25.4019 30.2929C25.5563 30.4475 25.5558 30.6984 25.4012 30.8529C25.2467 31.0072 24.9964 31.0072 24.8419 30.8529Z" fill="black" stroke="black" stroke-width="3"/>
<path d="M24.8412 30.2936L28.9423 26.1925C29.0968 26.0383 29.3471 26.0382 29.5016 26.1925C29.656 26.347 29.6565 26.5979 29.5023 26.7525L25.4012 30.8536C25.2466 31.008 24.9957 31.0074 24.8412 30.8529C24.6869 30.6984 24.6869 30.4481 24.8412 30.2936Z" fill="black" stroke="black" stroke-width="3"/>
</svg>
