<svg width="96" height="96" viewBox="0 0 96 96" fill="none" xmlns="http://www.w3.org/2000/svg">
<path d="M56.5955 2.3916C47.6545 0.600609 38.3865 1.51977 29.9636 5.0332C21.5407 8.54669 14.3403 14.4979 9.27319 22.1348C4.20614 29.7716 1.50082 38.7508 1.50073 47.9375V80.876C1.50078 88.3318 7.54491 94.376 15.0007 94.376H47.6033C56.7191 94.3759 65.6314 91.654 73.2126 86.5527C80.7939 81.4514 86.7044 74.1993 90.1951 65.7129C93.6858 57.2262 94.5988 47.8861 92.8191 38.876C91.0393 29.8661 86.6472 21.5913 80.199 15.0977C73.7507 8.604 65.5365 4.18262 56.5955 2.3916Z" fill="#F5654E" stroke="black" stroke-width="3"/>
<path d="M49.6546 25.8859C50.9557 25.8859 52.0104 24.8312 52.0104 23.5301C52.0104 22.229 50.9557 21.1743 49.6546 21.1743C48.3536 21.1743 47.2988 22.229 47.2988 23.5301C47.2988 24.8312 48.3536 25.8859 49.6546 25.8859Z" fill="black"/>
<path d="M67.3889 25.8859C68.6899 25.8859 69.7447 24.8312 69.7447 23.5301C69.7447 22.229 68.6899 21.1743 67.3889 21.1743C66.0878 21.1743 65.0331 22.229 65.0331 23.5301C65.0331 24.8312 66.0878 25.8859 67.3889 25.8859Z" fill="black"/>
<path d="M67.5635 32.7036H49.3708C48.2262 32.7036 47.2983 33.6315 47.2983 34.7761C47.2983 35.9206 48.2262 36.8485 49.3708 36.8485H67.5635C68.708 36.8485 69.6359 35.9206 69.6359 34.7761C69.6359 33.6315 68.708 32.7036 67.5635 32.7036Z" fill="black"/>
<path d="M67.5635 32.7036H49.3708C48.2262 32.7036 47.2983 33.6315 47.2983 34.7761C47.2983 35.9206 48.2262 36.8485 49.3708 36.8485H67.5635C68.708 36.8485 69.6359 35.9206 69.6359 34.7761C69.6359 33.6315 68.708 32.7036 67.5635 32.7036Z" fill="black"/>
<path d="M69.635 39.6507V30.8322C69.635 29.6876 68.7071 28.7598 67.5626 28.7598C66.418 28.7598 65.4901 29.6876 65.4901 30.8322V39.6507C65.4901 40.7953 66.418 41.7231 67.5626 41.7231C68.7071 41.7231 69.635 40.7953 69.635 39.6507Z" fill="black"/>
<path d="M69.635 39.6507V30.8322C69.635 29.6876 68.7071 28.7598 67.5626 28.7598C66.418 28.7598 65.4901 29.6876 65.4901 30.8322V39.6507C65.4901 40.7953 66.418 41.7231 67.5626 41.7231C68.7071 41.7231 69.635 40.7953 69.635 39.6507Z" fill="black"/>
</svg>
