<svg width="49" height="108" viewBox="0 0 49 108" fill="none" xmlns="http://www.w3.org/2000/svg">
<path d="M46.7781 24.1396L46.7746 83.8456C46.7739 96.3475 36.6384 106.482 24.1366 106.481C11.6348 106.48 1.50047 96.3448 1.5012 83.843L1.5047 24.1369C1.50543 11.6351 11.641 1.50086 24.1427 1.50152C36.6446 1.50225 46.7789 11.6377 46.7781 24.1396Z" fill="#F5654E" stroke="black" stroke-width="3"/>
<path d="M15.907 25.4358C16.9893 24.7137 17.2812 23.2509 16.559 22.1686C15.8369 21.0864 14.3741 20.7945 13.2919 21.5166C12.2096 22.2388 11.9177 23.7016 12.6399 24.7838C13.362 25.8661 14.8248 26.158 15.907 25.4358Z" fill="black"/>
<path d="M30.658 15.5926C31.7403 14.8704 32.0322 13.4076 31.31 12.3254C30.5879 11.2431 29.1251 10.9512 28.0428 11.6734C26.9606 12.3955 26.6687 13.8583 27.3908 14.9405C28.113 16.0228 29.5758 16.3147 30.658 15.5926Z" fill="black"/>
<path d="M23.3605 29.8925L29.0473 31.0274C30.0741 31.2323 31.0726 30.5661 31.2775 29.5393C31.4824 28.5125 30.8162 27.514 29.7894 27.3091L24.1025 26.1742C23.0757 25.9693 22.0772 26.6356 21.8723 27.6624C21.6674 28.6891 22.3337 29.6876 23.3605 29.8925Z" fill="black"/>
<path d="M28.6939 23.1102L27.559 28.7971C27.3541 29.8239 28.0204 30.8224 29.0471 31.0273C30.0739 31.2322 31.0724 30.5659 31.2773 29.5391L32.4122 23.8523C32.6171 22.8255 31.9508 21.827 30.9241 21.6221C29.8973 21.4172 28.8988 22.0834 28.6939 23.1102Z" fill="black"/>
</svg>
