<svg width="49" height="100" viewBox="0 0 49 100" fill="none" xmlns="http://www.w3.org/2000/svg">
<path d="M47.4436 49.6143C47.4436 62.3814 42.4399 74.622 33.5403 83.6436C26.9455 90.3285 18.6115 94.8401 9.62036 96.7285C5.36247 97.6226 1.50042 94.031 1.50024 89.2285L1.50024 10C1.50024 5.19737 5.36242 1.60504 9.62036 2.49902C18.6115 4.38744 26.9455 8.89989 33.5403 15.585C42.44 24.6066 47.4436 36.8471 47.4436 49.6143Z" fill="#F5654E" stroke="black" stroke-width="3"/>
<path d="M12.7686 31.3498C14.0697 31.3498 15.1244 30.295 15.1244 28.994C15.1244 27.6929 14.0697 26.6382 12.7686 26.6382C11.4676 26.6382 10.4128 27.6929 10.4128 28.994C10.4128 30.295 11.4676 31.3498 12.7686 31.3498Z" fill="black"/>
<path d="M30.5022 31.3498C31.8032 31.3498 32.858 30.295 32.858 28.994C32.858 27.6929 31.8032 26.6382 30.5022 26.6382C29.2011 26.6382 28.1464 27.6929 28.1464 28.994C28.1464 30.295 29.2011 31.3498 30.5022 31.3498Z" fill="black"/>
<path d="M27.1827 40.5272L23.1472 36.4917C22.4185 35.763 21.2372 35.763 20.5086 36.4917C19.78 37.2203 19.78 38.4016 20.5086 39.1302L24.5441 43.1658C25.2728 43.8944 26.4541 43.8944 27.1827 43.1658C27.9113 42.4372 27.9113 41.2558 27.1827 40.5272Z" fill="black"/>
<path d="M19.1117 43.1654L23.1473 39.1298C23.8759 38.4012 23.8759 37.2199 23.1473 36.4913C22.4186 35.7626 21.2373 35.7626 20.5087 36.4913L16.4731 40.5268C15.7445 41.2554 15.7445 42.4368 16.4731 43.1654C17.2018 43.894 18.3831 43.894 19.1117 43.1654Z" fill="black"/>
</svg>
