<svg width="67" height="73" viewBox="0 0 67 73" fill="none" xmlns="http://www.w3.org/2000/svg">
<g clip-path="url(#clip0_1010_769)">
<path d="M56.7055 31.0945L34.3271 64.6274C29.6373 71.6548 20.1382 73.5499 13.1108 68.8602C6.08358 64.1703 4.18911 54.6717 8.87884 47.6444L31.2573 14.1114C35.947 7.0841 45.4454 5.1886 52.4728 9.87815C59.5002 14.5679 61.3953 24.0671 56.7055 31.0945Z" fill="#F5654E" stroke="black" stroke-width="2"/>
<path d="M41.8061 23.2053C40.1132 24.1827 39.5332 26.3474 40.5105 28.0403C41.4879 29.7332 43.6526 30.3132 45.3455 29.3358C47.0384 28.3584 47.6185 26.1937 46.6411 24.5008C45.6637 22.8079 43.499 22.2279 41.8061 23.2053Z" fill="black"/>
<path d="M37.5744 20.1487C38.4438 20.1487 39.1487 19.4438 39.1487 18.5744C39.1487 17.7049 38.4438 17 37.5744 17C36.7049 17 36 17.7049 36 18.5744C36 19.4438 36.7049 20.1487 37.5744 20.1487Z" fill="black"/>
<path d="M49.4257 20.1487C50.2952 20.1487 51 19.4438 51 18.5744C51 17.7049 50.2952 17 49.4257 17C48.5562 17 47.8513 17.7049 47.8513 18.5744C47.8513 19.4438 48.5562 20.1487 49.4257 20.1487Z" fill="black"/>
</g>
<defs>
<clipPath id="clip0_1010_769">
<rect width="67" height="73" fill="white"/>
</clipPath>
</defs>
</svg>
