<svg width="97" height="97" viewBox="0 0 97 97" fill="none" xmlns="http://www.w3.org/2000/svg">
<path d="M95.0464 12L95.0464 84.5459C95.0464 90.3449 90.3454 95.0459 84.5464 95.0459L12.0005 95.0459C6.2015 95.0459 1.50048 90.3449 1.50048 84.5459L1.50049 60.2734C1.50049 54.4745 6.20149 49.7734 12.0005 49.7734L36.2729 49.7734C43.7287 49.7734 49.7728 43.7292 49.7729 36.2734L49.7729 12C49.7729 6.2011 54.4741 1.50015 60.2729 1.5L84.5464 1.5C90.3454 1.5 95.0464 6.20101 95.0464 12Z" fill="#F5654E" stroke="black" stroke-width="3"/>
<path d="M64.337 19.3976C65.6381 19.3976 66.6928 18.3429 66.6928 17.0418C66.6928 15.7408 65.6381 14.686 64.337 14.686C63.0359 14.686 61.9812 15.7408 61.9812 17.0418C61.9812 18.3429 63.0359 19.3976 64.337 19.3976Z" fill="black"/>
<path d="M82.0705 19.3976C83.3716 19.3976 84.4263 18.3429 84.4263 17.0418C84.4263 15.7408 83.3716 14.686 82.0705 14.686C80.7694 14.686 79.7147 15.7408 79.7147 17.0418C79.7147 18.3429 80.7694 19.3976 82.0705 19.3976Z" fill="black"/>
<path d="M68.0632 27.242L72.1637 31.3426C72.9041 32.0829 74.1045 32.0829 74.8448 31.3426C75.5852 30.6022 75.5852 29.4019 74.8448 28.6615L70.7443 24.561C70.0039 23.8206 68.8036 23.8206 68.0632 24.561C67.3228 25.3013 67.3228 26.5017 68.0632 27.242Z" fill="black"/>
<path d="M76.2639 24.5609L72.1634 28.6614C71.4231 29.4018 71.4231 30.6021 72.1634 31.3425C72.9038 32.0829 74.1041 32.0829 74.8445 31.3425L78.945 27.242C79.6854 26.5016 79.6854 25.3013 78.945 24.5609C78.2047 23.8205 77.0043 23.8205 76.2639 24.5609Z" fill="black"/>
</svg>
