<svg width="65" height="65" viewBox="0 0 65 65" fill="none" xmlns="http://www.w3.org/2000/svg">
<path d="M32.3672 1C40.6864 0.999607 48.6649 4.30417 54.5479 10.1865C60.4309 16.0689 63.7365 24.0476 63.7373 32.3672V32.373C63.7365 40.6926 60.4309 48.6713 54.5479 54.5537C48.6649 60.436 40.6863 63.7406 32.3672 63.7402C24.0482 63.7398 16.0699 60.4345 10.1875 54.5518C4.3051 48.6688 1.00003 40.6897 1 32.3701C1 24.0505 4.30507 16.0714 10.1875 10.1885C16.0699 4.30566 24.0481 1.00042 32.3672 1Z" fill="#F5654E" stroke="black" stroke-width="2"/>
<path d="M29.8663 17.2625C28.1559 18.2501 27.5699 20.4374 28.5574 22.1479C29.5449 23.8583 31.7321 24.4444 33.4425 23.4569C35.153 22.4693 35.739 20.282 34.7515 18.5715C33.764 16.8611 31.5768 16.2749 29.8663 17.2625Z" fill="black"/>
<path d="M25.5906 14.1737C26.4691 14.1737 27.1812 13.4615 27.1812 12.5829C27.1812 11.7044 26.4691 10.9922 25.5906 10.9922C24.712 10.9922 23.9999 11.7044 23.9999 12.5829C23.9999 13.4615 24.712 14.1737 25.5906 14.1737Z" fill="black"/>
<path d="M37.5649 14.1739C38.4434 14.1739 39.1555 13.4617 39.1555 12.5832C39.1555 11.7046 38.4434 10.9924 37.5649 10.9924C36.6864 10.9924 35.9742 11.7046 35.9742 12.5832C35.9742 13.4617 36.6864 14.1739 37.5649 14.1739Z" fill="black"/>
</svg>
