<svg width="97" height="49" viewBox="0 0 97 49" fill="none" xmlns="http://www.w3.org/2000/svg">
<path d="M12.0002 1.5H84.5461C90.3451 1.5 95.0461 6.20101 95.0461 12V36.2734C95.046 42.0723 90.345 46.7734 84.5461 46.7734H12.0002C6.20134 46.7734 1.50039 42.0723 1.50024 36.2734V12C1.50024 6.20101 6.20125 1.5 12.0002 1.5Z" fill="#F5654E" stroke="black" stroke-width="3"/>
<path d="M64.6805 19.7384C65.9816 19.7384 67.0363 18.6837 67.0363 17.3827C67.0363 16.0816 65.9816 15.0269 64.6805 15.0269C63.3794 15.0269 62.3247 16.0816 62.3247 17.3827C62.3247 18.6837 63.3794 19.7384 64.6805 19.7384Z" fill="black"/>
<path d="M82.4146 19.7384C83.7157 19.7384 84.7704 18.6837 84.7704 17.3827C84.7704 16.0816 83.7157 15.0269 82.4146 15.0269C81.1136 15.0269 80.0588 16.0816 80.0588 17.3827C80.0588 18.6837 81.1136 19.7384 82.4146 19.7384Z" fill="black"/>
<path d="M71.0795 23.6809C68.5464 25.1434 67.6784 28.3826 69.141 30.9157C70.6035 33.4489 73.8426 34.3168 76.3758 32.8543C78.909 31.3918 79.7769 28.1526 78.3144 25.6194C76.8519 23.0863 73.6127 22.2183 71.0795 23.6809Z" fill="black"/>
</svg>
