<svg width="68" height="78" viewBox="0 0 68 78" fill="none" xmlns="http://www.w3.org/2000/svg">
<path d="M57.7056 30.0946L35.3271 63.6276C30.6374 70.655 21.1382 72.5501 14.1108 67.8603C7.08364 63.1704 5.18917 53.6718 9.8789 46.6445L32.2574 13.1115C36.9471 6.08422 46.4455 4.18872 53.4729 8.87827C60.5003 13.5681 62.3954 23.0672 57.7056 30.0946Z" fill="#F5654E" stroke="black" stroke-width="2"/>
<path d="M37.6177 18.6568C37.9438 18.6569 38.2085 18.9214 38.2085 19.2476C38.2084 19.5737 37.9438 19.8384 37.6177 19.8384C37.2915 19.8384 37.0269 19.5738 37.0269 19.2476C37.0269 18.9214 37.2915 18.6568 37.6177 18.6568Z" fill="black" stroke="black" stroke-width="2"/>
<path d="M49.5919 18.6568C49.918 18.6569 50.1827 18.9214 50.1827 19.2476C50.1826 19.5737 49.918 19.8384 49.5919 19.8384C49.2657 19.8384 49.0011 19.5738 49.001 19.2476C49.001 18.9214 49.2656 18.6568 49.5919 18.6568Z" fill="black" stroke="black" stroke-width="2"/>
<path d="M43.9182 25.0171L46.643 27.7419C46.7445 27.8434 46.7445 28.0078 46.643 28.1093C46.5416 28.2108 46.3771 28.2108 46.2757 28.1093L43.5508 25.3844C43.4494 25.283 43.4494 25.1185 43.5508 25.0171C43.6395 24.9284 43.7766 24.9169 43.8774 24.9832L43.9182 25.0171Z" fill="black" stroke="black" stroke-width="2"/>
<path d="M43.9183 25.3843L41.1934 28.1092C41.092 28.2106 40.9275 28.2106 40.8261 28.1092C40.7246 28.0077 40.7246 27.8432 40.8261 27.7418L43.5509 25.0169C43.6524 24.9155 43.8168 24.9155 43.9183 25.0169C44.007 25.1056 44.0185 25.2428 43.9521 25.3436L43.9183 25.3843Z" fill="black" stroke="black" stroke-width="2"/>
</svg>
