<svg width="101" height="117" viewBox="0 0 101 117" fill="none" xmlns="http://www.w3.org/2000/svg">
<path d="M85.446 46.0403L52.3033 95.7029C45.3636 106.102 31.3077 108.906 20.9088 101.966C10.5101 95.0264 7.70581 80.9705 14.6455 70.5717L47.7882 20.9091C54.728 10.5103 68.7839 7.70618 79.1827 14.6458C89.5816 21.5856 92.3857 35.6415 85.446 46.0403Z" fill="#F5654E" stroke="black" stroke-width="3"/>
<path d="M59.0476 29.9836C60.3486 29.9836 61.4034 28.9288 61.4034 27.6278C61.4034 26.3267 60.3486 25.272 59.0476 25.272C57.7465 25.272 56.6918 26.3267 56.6918 27.6278C56.6918 28.9288 57.7465 29.9836 59.0476 29.9836Z" fill="black"/>
<path d="M76.7811 29.9836C78.0822 29.9836 79.1369 28.9288 79.1369 27.6278C79.1369 26.3267 78.0822 25.272 76.7811 25.272C75.48 25.272 74.4253 26.3267 74.4253 27.6278C74.4253 28.9288 75.48 29.9836 76.7811 29.9836Z" fill="black"/>
<path d="M62.7734 37.8275L66.8739 41.928C67.6143 42.6684 68.8147 42.6684 69.555 41.928C70.2954 41.1877 70.2954 39.9873 69.555 39.2469L65.4545 35.1464C64.7141 34.4061 63.5138 34.4061 62.7734 35.1464C62.0331 35.8868 62.0331 37.0871 62.7734 37.8275Z" fill="black"/>
<path d="M70.974 35.1463L66.8735 39.2469C66.1331 39.9872 66.1331 41.1876 66.8735 41.9279C67.6139 42.6683 68.8142 42.6683 69.5546 41.9279L73.6551 37.8274C74.3955 37.0871 74.3955 35.8867 73.6551 35.1463C72.9147 34.406 71.7144 34.406 70.974 35.1463Z" fill="black"/>
</svg>
