<svg width="211" height="68" viewBox="0 0 211 68" fill="none" xmlns="http://www.w3.org/2000/svg">
<g clip-path="url(#clip0_1009_768)">
<path d="M38.2162 4.60352C32.1767 3.39378 25.9165 4.01443 20.227 6.3877C14.5373 8.76103 9.67322 12.7808 6.25043 17.9395C2.82757 23.0982 1.00043 29.1644 1.00043 35.3701V52.7383C1.00043 60.4703 7.26844 66.7383 15.0004 66.7383H32.142C38.2998 66.7383 44.3197 64.899 49.4409 61.4531C54.5621 58.0071 58.5556 53.1087 60.9135 47.376C63.2713 41.6435 63.888 35.3351 62.686 29.249C61.4838 23.1628 58.5164 17.573 54.1606 13.1865C49.8048 8.80006 44.2559 5.81334 38.2162 4.60352Z" fill="#FFD552" stroke="black" stroke-width="2"/>
<path d="M33.5409 20.4553C34.4194 20.4553 35.1316 19.7431 35.1316 18.8646C35.1316 17.9861 34.4194 17.2739 33.5409 17.2739C32.6624 17.2739 31.9502 17.9861 31.9502 18.8646C31.9502 19.7431 32.6624 20.4553 33.5409 20.4553Z" fill="black"/>
<path d="M45.5151 20.4553C46.3936 20.4553 47.1058 19.7431 47.1058 18.8646C47.1058 17.9861 46.3936 17.2739 45.5151 17.2739C44.6366 17.2739 43.9244 17.9861 43.9244 18.8646C43.9244 19.7431 44.6366 20.4553 45.5151 20.4553Z" fill="black"/>
<path d="M36.0567 25.7519L38.8254 28.5206C39.3253 29.0205 40.1358 29.0205 40.6357 28.5206C41.1357 28.0207 41.1357 27.2102 40.6357 26.7103L37.867 23.9415C37.3671 23.4416 36.5566 23.4416 36.0567 23.9415C35.5568 24.4415 35.5568 25.252 36.0567 25.7519Z" fill="black"/>
<path d="M41.594 23.9413L38.8253 26.7101C38.3254 27.21 38.3254 28.0205 38.8253 28.5204C39.3252 29.0203 40.1357 29.0203 40.6356 28.5204L43.4043 25.7516C43.9042 25.2517 43.9042 24.4412 43.4043 23.9413C42.9044 23.4414 42.0939 23.4414 41.594 23.9413Z" fill="black"/>
<path d="M157.606 36H198.797C204.872 36.0002 209.797 40.925 209.797 47V55.5947C209.797 61.6697 204.872 66.5945 198.797 66.5947H157.606C151.531 66.5947 146.606 61.6699 146.606 55.5947V47L146.621 46.4336C146.916 40.6217 151.721 36 157.606 36Z" fill="#246DED" stroke="black" stroke-width="2"/>
<path d="M186.762 45.3286C187.089 45.3287 187.353 45.5933 187.353 45.9194C187.353 46.2455 187.089 46.5102 186.762 46.5103C186.436 46.5103 186.172 46.2456 186.172 45.9194C186.172 45.5932 186.436 45.3286 186.762 45.3286Z" fill="black" stroke="black" stroke-width="2"/>
<path d="M198.737 45.3286C199.063 45.3287 199.327 45.5933 199.327 45.9194C199.327 46.2455 199.063 46.5102 198.737 46.5103C198.41 46.5103 198.146 46.2456 198.146 45.9194C198.146 45.5932 198.41 45.3286 198.737 45.3286Z" fill="black" stroke="black" stroke-width="2"/>
<path d="M186.571 53.1133H198.855C199.076 53.1134 199.255 53.2922 199.255 53.5127C199.254 53.7332 199.076 53.912 198.855 53.9121H186.571C186.35 53.9121 186.172 53.7332 186.172 53.5127C186.172 53.2921 186.35 53.1133 186.571 53.1133Z" fill="black" stroke="black" stroke-width="2"/>
<path d="M186.571 53.1133H198.855C199.076 53.1134 199.255 53.2922 199.255 53.5127C199.254 53.7332 199.076 53.912 198.855 53.9121H186.571C186.35 53.9121 186.172 53.7332 186.172 53.5127C186.172 53.2921 186.35 53.1133 186.571 53.1133Z" fill="black" stroke="black" stroke-width="2"/>
<path d="M199.254 50.8501V56.8042C199.254 57.0248 199.075 57.2036 198.854 57.2036C198.634 57.2036 198.455 57.0247 198.455 56.8042V50.8501C198.455 50.6296 198.634 50.4507 198.854 50.4507C199.075 50.4507 199.254 50.6295 199.254 50.8501Z" fill="black" stroke="black" stroke-width="2"/>
<path d="M199.254 50.8501V56.8042C199.254 57.0248 199.075 57.2036 198.854 57.2036C198.634 57.2036 198.455 57.0247 198.455 56.8042V50.8501C198.455 50.6296 198.634 50.4507 198.854 50.4507C199.075 50.4507 199.254 50.6295 199.254 50.8501Z" fill="black" stroke="black" stroke-width="2"/>
<path d="M133.706 26.0945L111.327 59.6274C106.637 66.6548 97.1382 68.5499 90.1108 63.8602C83.0836 59.1703 81.1892 49.6717 85.8789 42.6444L108.257 9.11141C112.947 2.0841 122.446 0.188597 129.473 4.87815C136.5 9.56794 138.395 19.0671 133.706 26.0945Z" fill="#F5654E" stroke="black" stroke-width="2"/>
<path d="M118.806 18.2053C117.113 19.1827 116.533 21.3474 117.511 23.0403C118.488 24.7332 120.653 25.3132 122.346 24.3358C124.038 23.3584 124.618 21.1937 123.641 19.5008C122.664 17.8079 120.499 17.2279 118.806 18.2053Z" fill="black"/>
<path d="M114.574 15.1487C115.444 15.1487 116.149 14.4438 116.149 13.5744C116.149 12.7049 115.444 12 114.574 12C113.705 12 113 12.7049 113 13.5744C113 14.4438 113.705 15.1487 114.574 15.1487Z" fill="black"/>
<path d="M126.426 15.1487C127.295 15.1487 128 14.4438 128 13.5744C128 12.7049 127.295 12 126.426 12C125.556 12 124.851 12.7049 124.851 13.5744C124.851 14.4438 125.556 15.1487 126.426 15.1487Z" fill="black"/>
</g>
<defs>
<clipPath id="clip0_1009_768">
<rect width="211" height="68" fill="white"/>
</clipPath>
</defs>
</svg>
