<svg width="97" height="97" viewBox="0 0 97 97" fill="none" xmlns="http://www.w3.org/2000/svg">
<path d="M12 1.5H84.5459C90.3449 1.5 95.0459 6.20101 95.0459 12V84.5459C95.0459 90.3449 90.3449 95.0459 84.5459 95.0459H60.2734C54.4745 95.0459 49.7734 90.3449 49.7734 84.5459V60.2734C49.7734 52.8177 43.7292 46.7736 36.2734 46.7734H12C6.2011 46.7734 1.50015 42.0723 1.5 36.2734V12C1.5 6.20101 6.20101 1.5 12 1.5Z" fill="#FFD552" stroke="black" stroke-width="3"/>
<path d="M15.1213 15.8823C15.5939 15.8823 15.9776 16.2653 15.9778 16.7378C15.9778 17.2104 15.594 17.5942 15.1213 17.5942C14.6488 17.5941 14.2659 17.2103 14.2659 16.7378C14.266 16.2654 14.649 15.8825 15.1213 15.8823Z" fill="black" stroke="black" stroke-width="3"/>
<path d="M32.8556 15.8823C33.3281 15.8823 33.7119 16.2653 33.712 16.7378C33.712 17.2104 33.3282 17.5942 32.8556 17.5942C32.3831 17.5941 32.0001 17.2103 32.0001 16.7378C32.0003 16.2654 32.3832 15.8825 32.8556 15.8823Z" fill="black" stroke="black" stroke-width="3"/>
<path d="M14.8386 27.4121H33.031C33.3471 27.4121 33.6042 27.6683 33.6042 27.9844C33.6042 28.3005 33.3472 28.5566 33.031 28.5566H14.8386C14.5226 28.5565 14.2664 28.3005 14.2664 27.9844C14.2665 27.6684 14.5226 27.4122 14.8386 27.4121Z" fill="black" stroke="black" stroke-width="3"/>
<path d="M14.8386 27.4121H33.031C33.3471 27.4121 33.6042 27.6683 33.6042 27.9844C33.6042 28.3005 33.3472 28.5566 33.031 28.5566H14.8386C14.5226 28.5565 14.2664 28.3005 14.2664 27.9844C14.2665 27.6684 14.5226 27.4122 14.8386 27.4121Z" fill="black" stroke="black" stroke-width="3"/>
<path d="M33.6031 24.0405V32.8589C33.6031 33.175 33.347 33.4311 33.0309 33.4312C32.7147 33.4312 32.4586 33.175 32.4586 32.8589V24.0405C32.4587 23.7245 32.7148 23.4683 33.0309 23.4683C33.3469 23.4684 33.6031 23.7245 33.6031 24.0405Z" fill="black" stroke="black" stroke-width="3"/>
<path d="M33.6031 24.0405V32.8589C33.6031 33.175 33.347 33.4311 33.0309 33.4312C32.7147 33.4312 32.4586 33.175 32.4586 32.8589V24.0405C32.4587 23.7245 32.7148 23.4683 33.0309 23.4683C33.3469 23.4684 33.6031 23.7245 33.6031 24.0405Z" fill="black" stroke="black" stroke-width="3"/>
</svg>
