<svg width="96" height="96" viewBox="0 0 96 96" fill="none" xmlns="http://www.w3.org/2000/svg">
<path d="M56.5952 2.3916C47.6543 0.600609 38.3862 1.51977 29.9634 5.0332C21.5404 8.54669 14.34 14.4979 9.27295 22.1348C4.2059 29.7716 1.50058 38.7508 1.50049 47.9375V80.876C1.50053 88.3318 7.54467 94.376 15.0005 94.376H47.603C56.7189 94.3759 65.6312 91.654 73.2124 86.5527C80.7937 81.4514 86.7041 74.1993 90.1948 65.7129C93.6856 57.2262 94.5985 47.8861 92.8188 38.876C91.0391 29.8661 86.647 21.5913 80.1987 15.0977C73.7505 8.604 65.5362 4.18262 56.5952 2.3916Z" fill="#FFD552" stroke="black" stroke-width="3"/>
<path d="M49.6739 25.8498C50.975 25.8498 52.0297 24.795 52.0297 23.494C52.0297 22.1929 50.975 21.1382 49.6739 21.1382C48.3728 21.1382 47.3181 22.1929 47.3181 23.494C47.3181 24.795 48.3728 25.8498 49.6739 25.8498Z" fill="black"/>
<path d="M67.4076 25.8498C68.7086 25.8498 69.7633 24.795 69.7633 23.494C69.7633 22.1929 68.7086 21.1382 67.4076 21.1382C66.1065 21.1382 65.0518 22.1929 65.0518 23.494C65.0518 24.795 66.1065 25.8498 67.4076 25.8498Z" fill="black"/>
<path d="M53.4001 33.6937L57.5006 37.7942C58.241 38.5346 59.4414 38.5346 60.1817 37.7942C60.9221 37.0539 60.9221 35.8535 60.1817 35.1132L56.0812 31.0126C55.3408 30.2723 54.1405 30.2723 53.4001 31.0126C52.6598 31.753 52.6598 32.9533 53.4001 33.6937Z" fill="black"/>
<path d="M61.6009 31.0125L57.5003 35.1131C56.76 35.8534 56.76 37.0538 57.5003 37.7942C58.2407 38.5345 59.441 38.5345 60.1814 37.7942L64.2819 33.6936C65.0223 32.9533 65.0223 31.7529 64.2819 31.0125C63.5416 30.2722 62.3412 30.2722 61.6009 31.0125Z" fill="black"/>
</svg>
