<svg width="97" height="49" viewBox="0 0 97 49" fill="none" xmlns="http://www.w3.org/2000/svg">
<path d="M12 1.5H84.5459C90.3449 1.5 95.0459 6.20101 95.0459 12V36.2734C95.0458 42.0723 90.3448 46.7734 84.5459 46.7734H12C6.2011 46.7734 1.50015 42.0723 1.5 36.2734V12C1.5 6.20101 6.20101 1.5 12 1.5Z" fill="#FFD552" stroke="black" stroke-width="3"/>
<path d="M59.8933 16.3994C60.3658 16.3994 60.7496 16.7824 60.7498 17.2549C60.7498 17.7275 60.366 18.1113 59.8933 18.1113C59.4208 18.1112 59.0378 17.7274 59.0378 17.2549C59.038 16.7825 59.4209 16.3996 59.8933 16.3994Z" fill="black" stroke="black" stroke-width="3"/>
<path d="M77.6267 16.3994C78.0992 16.3994 78.483 16.7824 78.4832 17.2549C78.4832 17.7275 78.0994 18.1113 77.6267 18.1113C77.1542 18.1112 76.7712 17.7274 76.7712 17.2549C76.7714 16.7825 77.1543 16.3996 77.6267 16.3994Z" fill="black" stroke="black" stroke-width="3"/>
<path d="M69.2116 25.8139L73.2471 29.8493C73.3897 29.9922 73.3891 30.2238 73.2464 30.3666C73.1036 30.509 72.8726 30.509 72.7299 30.3666L68.6944 26.3311C68.5516 26.1883 68.5512 25.9567 68.6937 25.8139C68.8365 25.671 69.0687 25.671 69.2116 25.8139Z" fill="black" stroke="black" stroke-width="3"/>
<path d="M69.2103 26.3307L65.1748 30.3662C65.032 30.5088 64.8004 30.5083 64.6576 30.3655C64.5152 30.2227 64.5151 29.9918 64.6576 29.849L68.6931 25.8135C68.8358 25.6708 69.0674 25.6703 69.2103 25.8128C69.3531 25.9557 69.3531 26.1879 69.2103 26.3307Z" fill="black" stroke="black" stroke-width="3"/>
</svg>
