<svg width="49" height="100" viewBox="0 0 49 100" fill="none" xmlns="http://www.w3.org/2000/svg">
<path d="M47.4436 49.6143C47.4436 62.3814 42.4399 74.622 33.5403 83.6436C26.9455 90.3285 18.6115 94.8401 9.62036 96.7285C5.36247 97.6226 1.50042 94.031 1.50024 89.2285L1.50024 10C1.50024 5.19737 5.36242 1.60504 9.62036 2.49902C18.6115 4.38744 26.9455 8.89989 33.5403 15.585C42.44 24.6066 47.4436 36.8471 47.4436 49.6143Z" fill="#FFD552" stroke="black" stroke-width="3"/>
<path d="M12.872 31.8136C14.1731 31.8136 15.2278 30.7589 15.2278 29.4578C15.2278 28.1568 14.1731 27.1021 12.872 27.1021C11.571 27.1021 10.5162 28.1568 10.5162 29.4578C10.5162 30.7589 11.571 31.8136 12.872 31.8136Z" fill="black"/>
<path d="M30.6056 31.8136C31.9066 31.8136 32.9613 30.7589 32.9613 29.4578C32.9613 28.1568 31.9066 27.1021 30.6056 27.1021C29.3045 27.1021 28.2498 28.1568 28.2498 29.4578C28.2498 30.7589 29.3045 31.8136 30.6056 31.8136Z" fill="black"/>
<path d="M16.598 39.6576L20.6985 43.7581C21.4389 44.4985 22.6392 44.4985 23.3796 43.7581C24.12 43.0177 24.12 41.8174 23.3796 41.077L19.2791 36.9765C18.5387 36.2361 17.3384 36.2361 16.598 36.9765C15.8576 37.7169 15.8576 38.9172 16.598 39.6576Z" fill="black"/>
<path d="M24.7986 36.9764L20.6981 41.0769C19.9577 41.8173 19.9577 43.0177 20.6981 43.758C21.4384 44.4984 22.6388 44.4984 23.3792 43.758L27.4797 39.6575C28.22 38.9171 28.22 37.7168 27.4797 36.9764C26.7393 36.2361 25.539 36.2361 24.7986 36.9764Z" fill="black"/>
</svg>
