<svg width="101" height="117" viewBox="0 0 101 117" fill="none" xmlns="http://www.w3.org/2000/svg">
<path d="M85.446 46.0403L52.3033 95.7029C45.3636 106.102 31.3077 108.906 20.9088 101.966C10.5101 95.0264 7.70581 80.9705 14.6455 70.5717L47.7882 20.9091C54.728 10.5103 68.7839 7.70618 79.1827 14.6458C89.5816 21.5856 92.3857 35.6415 85.446 46.0403Z" fill="#FFD552" stroke="black" stroke-width="3"/>
<path d="M56.1877 30.1247C57.4888 30.1247 58.5435 29.07 58.5435 27.7689C58.5435 26.4678 57.4888 25.4131 56.1877 25.4131C54.8866 25.4131 53.8319 26.4678 53.8319 27.7689C53.8319 29.07 54.8866 30.1247 56.1877 30.1247Z" fill="black"/>
<path d="M73.922 30.1247C75.223 30.1247 76.2778 29.07 76.2778 27.7689C76.2778 26.4678 75.223 25.4131 73.922 25.4131C72.6209 25.4131 71.5662 26.4678 71.5662 27.7689C71.5662 29.07 72.6209 30.1247 73.922 30.1247Z" fill="black"/>
<path d="M62.5882 34.0671C60.055 35.5296 59.1871 38.7688 60.6496 41.302C62.1122 43.8351 65.3513 44.7031 67.8845 43.2405C70.4177 41.778 71.2856 38.5388 69.8231 36.0057C68.3605 33.4725 65.1214 32.6046 62.5882 34.0671Z" fill="black"/>
</svg>
