<svg width="97" height="49" viewBox="0 0 97 49" fill="none" xmlns="http://www.w3.org/2000/svg">
<path d="M12 1.5H84.5459C90.3449 1.5 95.0459 6.20101 95.0459 12V36.2734C95.0458 42.0723 90.3448 46.7734 84.5459 46.7734H12C6.2011 46.7734 1.50015 42.0723 1.5 36.2734V12C1.5 6.20101 6.20101 1.5 12 1.5Z" fill="#FFD552" stroke="black" stroke-width="3"/>
<path d="M59.8928 16.3994C60.3654 16.3994 60.7491 16.7824 60.7493 17.2549C60.7493 17.7275 60.3655 18.1113 59.8928 18.1113C59.4203 18.1112 59.0374 17.7274 59.0374 17.2549C59.0375 16.7825 59.4204 16.3996 59.8928 16.3994Z" fill="black" stroke="black" stroke-width="3"/>
<path d="M77.6263 16.3994C78.0989 16.3994 78.4826 16.7824 78.4828 17.2549C78.4828 17.7275 78.099 18.1113 77.6263 18.1113C77.1538 18.1112 76.7709 17.7274 76.7709 17.2549C76.7711 16.7825 77.154 16.3996 77.6263 16.3994Z" fill="black" stroke="black" stroke-width="3"/>
<path d="M69.2113 25.8139L73.2468 29.8493C73.3894 29.9922 73.3889 30.2238 73.2461 30.3666C73.1034 30.509 72.8724 30.509 72.7296 30.3666L68.6941 26.3311C68.5514 26.1883 68.5509 25.9567 68.6934 25.8139C68.8363 25.671 69.0685 25.671 69.2113 25.8139Z" fill="black" stroke="black" stroke-width="3"/>
<path d="M69.2103 26.3307L65.1748 30.3662C65.032 30.5088 64.8004 30.5083 64.6576 30.3655C64.5152 30.2227 64.5151 29.9918 64.6576 29.849L68.6931 25.8135C68.8358 25.6708 69.0674 25.6703 69.2103 25.8128C69.3531 25.9557 69.3531 26.1879 69.2103 26.3307Z" fill="black" stroke="black" stroke-width="3"/>
</svg>
