<svg width="49" height="108" viewBox="0 0 49 108" fill="none" xmlns="http://www.w3.org/2000/svg">
<path d="M46.7789 24.14L46.7748 83.8461C46.774 96.3479 36.6384 106.482 24.1366 106.481C11.6348 106.48 1.50054 96.3448 1.50139 83.843L1.50544 24.137C1.50629 11.6352 11.6419 1.501 24.1437 1.50178C36.6455 1.50263 46.7797 11.6382 46.7789 24.14Z" fill="#FFD552" stroke="black" stroke-width="3"/>
<path d="M13.6074 27.1405C14.6897 26.4183 14.9816 24.9555 14.2595 23.8733C13.5373 22.791 12.0746 22.4991 10.9923 23.2212C9.91006 23.9434 9.61813 25.4062 10.3403 26.4884C11.0624 27.5707 12.5252 27.8626 13.6074 27.1405Z" fill="black"/>
<path d="M28.3592 17.2972C29.4414 16.575 29.7333 15.1123 29.0112 14.03C28.289 12.9478 26.8263 12.6558 25.744 13.378C24.6618 14.1001 24.3698 15.5629 25.092 16.6452C25.8141 17.7274 27.2769 18.0193 28.3592 17.2972Z" fill="black"/>
<path d="M21.1193 26.8673C19.8239 29.4898 20.8998 32.666 23.5224 33.9614C26.145 35.2568 29.3212 34.1809 30.6165 31.5583C31.9119 28.9357 30.836 25.7596 28.2135 24.4642C25.5909 23.1688 22.4147 24.2447 21.1193 26.8673Z" fill="black"/>
</svg>
