<svg width="65" height="65" viewBox="0 0 65 65" fill="none" xmlns="http://www.w3.org/2000/svg">
<path d="M38.2162 1.60254C32.1767 0.3928 25.9165 1.01346 20.227 3.38672C14.5373 5.76006 9.67322 9.77987 6.25043 14.9385C2.82757 20.0972 1.00043 26.1635 1.00043 32.3691V49.7373C1.00043 57.4693 7.26844 63.7373 15.0004 63.7373H32.142C38.2998 63.7373 44.3197 61.898 49.4409 58.4521C54.5621 55.0062 58.5556 50.1077 60.9135 44.375C63.2713 38.6425 63.888 32.3341 62.686 26.248C61.4838 20.1618 58.5164 14.5721 54.1606 10.1855C49.8048 5.79908 44.2559 2.81236 38.2162 1.60254Z" fill="#FFD552" stroke="black" stroke-width="2"/>
<path d="M33.5409 17.4543C34.4194 17.4543 35.1316 16.7421 35.1316 15.8636C35.1316 14.9851 34.4194 14.2729 33.5409 14.2729C32.6624 14.2729 31.9502 14.9851 31.9502 15.8636C31.9502 16.7421 32.6624 17.4543 33.5409 17.4543Z" fill="black"/>
<path d="M45.5151 17.4543C46.3936 17.4543 47.1058 16.7421 47.1058 15.8636C47.1058 14.9851 46.3936 14.2729 45.5151 14.2729C44.6366 14.2729 43.9244 14.9851 43.9244 15.8636C43.9244 16.7421 44.6366 17.4543 45.5151 17.4543Z" fill="black"/>
<path d="M36.0567 22.7507L38.8254 25.5195C39.3253 26.0194 40.1358 26.0194 40.6357 25.5195C41.1357 25.0196 41.1357 24.209 40.6357 23.7091L37.867 20.9404C37.3671 20.4405 36.5566 20.4405 36.0567 20.9404C35.5568 21.4403 35.5568 22.2508 36.0567 22.7507Z" fill="black"/>
<path d="M41.594 20.9403L38.8253 23.7091C38.3254 24.209 38.3254 25.0195 38.8253 25.5194C39.3252 26.0193 40.1357 26.0193 40.6356 25.5194L43.4043 22.7507C43.9042 22.2508 43.9042 21.4402 43.4043 20.9403C42.9044 20.4404 42.0939 20.4404 41.594 20.9403Z" fill="black"/>
</svg>
