<svg width="95" height="36" viewBox="0 0 95 36" fill="none" xmlns="http://www.w3.org/2000/svg">
<path fill-rule="evenodd" clip-rule="evenodd" d="M19.7397 21.3923C18.3486 22.6239 17.3052 24.2074 16.7836 25.9667H7.3066C6.78493 24.2073 5.7416 22.6238 4.26357 21.3923C1.56827 19.1051 -0.0836982 15.6743 0.00327331 11.8036C0.177135 5.55774 5.21994 0.279559 11.393 0.0156494C18.3486 -0.336257 24 5.29383 24 12.1555C24 15.8502 22.348 19.193 19.7397 21.3923ZM4.85614 11.7789C4.85614 11.7789 5.5786 12.8554 7.09281 13.7667C7.09281 13.7667 6.11844 5.41419 11.9908 3.08798V3.05999C12.331 2.93063 12.6933 2.82076 13.0797 2.73331L13.0756 2.74867C13.0975 2.74347 13.1195 2.73835 13.1416 2.73331C11.925 7.26197 13.3537 9.62992 14.8941 9.65245C15.6653 9.64129 16.4581 9.05449 16.9619 7.86964L16.9775 7.89066L16.9864 7.86964C19.5184 11.2985 17.596 14.2899 17.596 14.2899C17.6573 14.2989 17.7181 14.3033 17.7782 14.3037C18.7357 14.2978 19.5063 13.2912 19.5063 13.2912C19.5097 13.3534 19.5125 13.4158 19.5145 13.4783C19.5171 13.5583 19.5185 13.6386 19.5185 13.7193C19.5185 13.7987 19.5172 13.8778 19.5148 13.9567C19.3912 18.023 16.1023 21.281 12.0632 21.281L12.0272 21.2809L11.9908 21.281C7.90674 21.2416 4.60795 17.871 4.60795 13.7193C4.60795 13.0484 4.69453 12.3982 4.85614 11.7789Z" fill="#292226"/>
<path d="M7.28892 29.297H16.6562C17.1766 29.297 17.6102 28.8561 17.6102 28.3269C17.6102 27.7977 17.1766 27.3567 16.6562 27.3567H7.28892C6.76852 27.3567 6.33488 27.7977 6.33488 28.3269C6.33488 28.8561 6.76852 29.297 7.28892 29.297Z" fill="#292226"/>
<path d="M11.9725 36C10.7582 36 9.71741 35.2062 9.28369 34.1479H14.6612C14.2275 35.2062 13.1867 36 11.9725 36Z" fill="#292226"/>
<path d="M16.6562 32.384H7.28892C6.76852 32.384 6.33488 31.943 6.33488 31.4138C6.33488 30.8846 6.76852 30.4437 7.28892 30.4437H16.6562C17.1766 30.4437 17.6102 30.8846 17.6102 31.4138C17.6102 31.9429 17.1766 32.384 16.6562 32.384Z" fill="#292226"/>
<path d="M15.346 16.0293C15.3462 16.0461 15.3464 16.0629 15.3464 16.0798C15.3464 16.0966 15.3462 16.1134 15.346 16.1301C15.3198 17.9534 13.8717 19.4232 12.0892 19.4232C12.0772 19.4232 12.0653 19.4231 12.0533 19.423C12.0412 19.4231 12.029 19.4232 12.0168 19.4232V19.4224C10.2514 19.3828 8.83208 17.9015 8.83208 16.0798C8.83208 12.4404 10.9539 11.2558 12.0168 10.8907V10.8666C12.3385 10.7646 12.5483 10.7381 12.5483 10.7381C12.5455 10.7419 12.5427 10.7457 12.54 10.7496C12.5848 10.7413 12.6091 10.7381 12.6091 10.7381C11.5389 12.2268 12.3385 14.1362 13.3372 14.1638C13.6372 14.1557 13.9525 13.9841 14.2404 13.5913C14.2453 13.5957 14.2501 13.6001 14.2549 13.6045C14.2581 13.6001 14.2613 13.5957 14.2644 13.5913C14.9173 14.1929 15.332 15.0613 15.346 16.0293Z" fill="#292226"/>
<path d="M40.104 23.22C39.2973 23.22 38.5933 23.1027 37.992 22.868C37.3907 22.6333 36.8773 22.34 36.452 21.988C36.0413 21.636 35.7113 21.2987 35.462 20.976L37.332 19.348C37.5813 19.7587 37.9333 20.14 38.388 20.492C38.8573 20.8293 39.4367 20.998 40.126 20.998C40.6687 20.998 41.0867 20.8953 41.38 20.69C41.688 20.47 41.842 20.1987 41.842 19.876C41.842 19.612 41.7467 19.3993 41.556 19.238C41.3653 19.062 41.1087 18.9227 40.786 18.82C40.4633 18.7027 40.104 18.5927 39.708 18.49C39.2973 18.3727 38.872 18.2407 38.432 18.094C37.992 17.9473 37.5887 17.7567 37.222 17.522C36.8553 17.2727 36.5547 16.9573 36.32 16.576C36.1 16.1947 35.99 15.718 35.99 15.146C35.99 14.1927 36.364 13.4227 37.112 12.836C37.86 12.2347 38.85 11.934 40.082 11.934C40.9473 11.934 41.732 12.11 42.436 12.462C43.14 12.7993 43.6973 13.2907 44.108 13.936L42.414 15.278C42.15 14.8527 41.798 14.5373 41.358 14.332C40.9327 14.112 40.478 14.002 39.994 14.002C39.5687 14.002 39.2167 14.0827 38.938 14.244C38.674 14.4053 38.542 14.6253 38.542 14.904C38.542 15.0947 38.6007 15.256 38.718 15.388C38.85 15.52 39.0553 15.6373 39.334 15.74C39.6273 15.828 40.0087 15.9307 40.478 16.048C40.918 16.1507 41.3727 16.2753 41.842 16.422C42.3113 16.5687 42.7513 16.7667 43.162 17.016C43.5727 17.2653 43.9027 17.5953 44.152 18.006C44.4013 18.4167 44.526 18.9373 44.526 19.568C44.526 20.2867 44.3427 20.9247 43.976 21.482C43.6093 22.0247 43.096 22.45 42.436 22.758C41.776 23.066 40.9987 23.22 40.104 23.22ZM46.719 27.488V12.154H49.447V15.058L48.787 15.278C48.9776 14.4127 49.2636 13.738 49.645 13.254C50.041 12.77 50.4883 12.4327 50.987 12.242C51.4856 12.0367 52.0063 11.934 52.549 11.934C53.5023 11.934 54.3236 12.1833 55.013 12.682C55.717 13.166 56.2523 13.8333 56.619 14.684C56.9856 15.5347 57.169 16.5027 57.169 17.588C57.169 18.7613 56.9636 19.7733 56.553 20.624C56.1423 21.46 55.585 22.1053 54.881 22.56C54.177 23 53.3996 23.22 52.549 23.22C51.977 23.22 51.4343 23.1027 50.921 22.868C50.4076 22.6333 49.9676 22.2813 49.601 21.812C49.249 21.328 49.007 20.7193 48.875 19.986L49.447 20.074V27.488H46.719ZM51.801 20.712C52.3436 20.712 52.8056 20.5873 53.187 20.338C53.583 20.074 53.891 19.7073 54.111 19.238C54.331 18.7687 54.441 18.2187 54.441 17.588C54.441 16.9427 54.331 16.3853 54.111 15.916C53.891 15.4467 53.583 15.0873 53.187 14.838C52.8056 14.574 52.3436 14.442 51.801 14.442C51.273 14.442 50.811 14.574 50.415 14.838C50.0336 15.102 49.733 15.4687 49.513 15.938C49.3076 16.3927 49.205 16.9427 49.205 17.588C49.205 18.2187 49.3076 18.7687 49.513 19.238C49.733 19.7073 50.0336 20.074 50.415 20.338C50.811 20.5873 51.273 20.712 51.801 20.712ZM66.3038 23L66.0838 21.372V16.158C66.0838 15.5127 65.8784 15.036 65.4678 14.728C65.0718 14.4053 64.5291 14.244 63.8398 14.244C63.2678 14.244 62.6811 14.3613 62.0798 14.596C61.4931 14.816 60.9724 15.1313 60.5178 15.542L59.1318 13.672C59.8944 13.056 60.6718 12.616 61.4638 12.352C62.2704 12.0733 63.1358 11.934 64.0598 11.934C65.5558 11.934 66.7218 12.308 67.5578 13.056C68.3938 13.804 68.8118 14.838 68.8118 16.158V23H66.3038ZM63.0258 23.22C62.2338 23.22 61.5224 23.0733 60.8918 22.78C60.2758 22.4867 59.7844 22.0687 59.4178 21.526C59.0658 20.9833 58.8898 20.36 58.8898 19.656C58.8898 19.0253 59.0144 18.49 59.2638 18.05C59.5278 17.5953 59.8724 17.2507 60.2978 17.016C60.6644 16.796 61.0678 16.642 61.5078 16.554C61.9624 16.466 62.4464 16.422 62.9598 16.422H66.3258V18.446H63.3558C63.1211 18.446 62.8864 18.468 62.6518 18.512C62.4318 18.5413 62.2411 18.622 62.0798 18.754C61.9331 18.8567 61.8231 18.9887 61.7498 19.15C61.6764 19.2967 61.6398 19.4653 61.6398 19.656C61.6398 20.0667 61.8011 20.3967 62.1238 20.646C62.4464 20.8953 62.8791 21.02 63.4218 21.02C63.9058 21.02 64.3458 20.9173 64.7418 20.712C65.1524 20.492 65.4751 20.1987 65.7098 19.832C65.9591 19.4507 66.0838 19.018 66.0838 18.534L66.8098 19.986C66.6191 20.7487 66.3258 21.372 65.9298 21.856C65.5484 22.3253 65.1084 22.67 64.6098 22.89C64.1111 23.11 63.5831 23.22 63.0258 23.22ZM71.3615 23V12.154H74.1115V15.102L73.6935 15.146C73.7375 14.5153 73.9282 13.958 74.2655 13.474C74.6029 12.99 75.0135 12.616 75.4975 12.352C75.9962 12.0733 76.5022 11.934 77.0155 11.934C77.3822 11.934 77.7269 11.9853 78.0495 12.088C78.3869 12.176 78.7315 12.33 79.0835 12.55L77.7635 15.014C77.6022 14.926 77.3969 14.8453 77.1475 14.772C76.8982 14.6987 76.6489 14.662 76.3995 14.662C76.1062 14.662 75.8202 14.7133 75.5415 14.816C75.2775 14.9187 75.0355 15.08 74.8155 15.3C74.6102 15.52 74.4415 15.8133 74.3095 16.18C74.2509 16.3853 74.1995 16.6493 74.1555 16.972C74.1262 17.28 74.1115 17.7347 74.1115 18.336V23H71.3615ZM88.0767 23L84.9307 18.05L83.2367 19.942V16.532L87.3947 12.154H90.8707L86.9327 16.202L91.3327 23H88.0767ZM80.7287 23V7.666H83.4787V23H80.7287Z" fill="#292226"/>
</svg>
