<svg width="92" height="129" viewBox="0 0 92 129" fill="none" xmlns="http://www.w3.org/2000/svg">
<path fill-rule="evenodd" clip-rule="evenodd" d="M43.5973 0.0262018C42.4683 0.0834872 41.5178 0.158165 40.4808 0.271002C32.1439 1.17822 24.1377 4.38018 17.4239 9.49236C16.0579 10.5324 14.9427 11.487 13.5698 12.7913C11.0392 15.1955 9.0342 17.5625 7.15989 20.3586C3.24375 26.2008 0.82343 32.8664 0.171398 39.6049C-0.0813164 42.2166 -0.0528372 45.4604 0.245333 48.0247C0.760492 52.4549 1.85354 56.4715 3.62473 60.4425C4.04811 61.3918 5.17988 63.5907 5.69535 64.4655C8.50085 69.227 11.9115 73.112 16.5624 76.8441C20.5964 80.0812 23.6042 83.6595 25.8025 87.837C26.5907 89.3348 27.0171 90.3046 27.6115 91.9519L28.0027 93.036L46.1642 93.0481L64.3256 93.0602L64.5961 92.2772C66.177 87.7001 68.7844 83.5013 72.4232 79.6725C73.2919 78.7585 74.8362 77.3412 76.0055 76.3848C79.3789 73.6255 81.9617 70.8802 84.2972 67.5714C92.0006 56.658 94.0473 43.0802 89.8886 30.4771C88.0202 24.8151 84.8716 19.5056 80.6351 14.8733C79.861 14.0269 77.3374 11.6153 76.4852 10.9076C71.7155 6.94675 66.4923 4.08426 60.6327 2.21986C56.9608 1.05151 53.4433 0.388993 49.2222 0.0706714C48.3405 0.00418375 44.6115 -0.0253021 43.5973 0.0262018ZM50.1285 10.637C49.4423 13.1989 49.0073 15.5106 48.7572 17.9242C48.6434 19.0226 48.6267 22.5878 48.7309 23.5371C48.951 25.5421 49.364 27.2843 49.9693 28.761C51.3999 32.2517 53.9663 34.4203 56.8263 34.5551C58.7676 34.6466 60.7609 33.766 62.4159 32.0855C63.2591 31.2294 63.8941 30.3376 64.5921 29.0295C64.8254 28.5923 65.0428 28.2338 65.0752 28.2329C65.1526 28.2307 65.5107 28.689 66.1491 29.6077C68.3542 32.7805 69.6134 36.0297 70.0326 39.629C70.1167 40.3515 70.1166 42.6666 70.0323 43.387C69.7803 45.5418 69.2949 47.3751 68.485 49.2304C68.2759 49.7097 67.746 50.7289 67.5621 51.006L67.4397 51.1903L67.5723 51.2219C67.6452 51.2393 68.0044 51.2416 68.3705 51.227C69.7459 51.1723 71.1034 50.6544 72.5386 49.6369C73.1755 49.1853 74.016 48.4585 74.4075 48.0209C74.5748 47.834 74.7313 47.6797 74.7554 47.678C74.831 47.6728 74.7569 51.1865 74.6652 51.963C74.3669 54.4862 73.7656 56.8195 72.8276 59.0935C72.4356 60.0437 71.5593 61.767 71.0124 62.6629C69.0878 65.8162 66.5163 68.573 63.4365 70.7849C61.9901 71.8236 60.7111 72.5725 58.9771 73.3957C55.8192 74.895 52.6789 75.7538 48.9688 76.1331C47.8201 76.2505 44.7012 76.251 43.5213 76.134C38.8549 75.6713 34.6774 74.3056 30.8618 71.9953C24.7282 68.2816 20.2697 62.4119 18.5186 55.745C17.9597 53.6172 17.7348 51.9642 17.6923 49.6712C17.6625 48.0685 17.711 47.095 17.8864 45.7719C18.0319 44.6738 18.3416 43.1182 18.5524 42.426L18.6163 42.2161L18.8402 42.5004C19.2986 43.0825 19.8531 43.6762 20.7417 44.5363C22.4981 46.2365 24.2447 47.5728 26.4315 48.8893C26.8146 49.12 27.1398 49.3097 27.1542 49.3109C27.1686 49.3121 27.1523 48.9944 27.1181 48.605C26.8482 45.538 26.9205 41.623 27.3086 38.3041C28.6447 26.8743 33.2135 18.4734 40.7089 13.6645C42.1013 12.7712 43.6264 11.9841 45.1988 11.3472C45.5953 11.1866 45.9445 11.0244 45.9747 10.9867C46.0487 10.8945 47.4894 10.435 48.6141 10.1449C49.8247 9.83256 49.8973 9.81671 50.1414 9.81088L50.3512 9.80591L50.1285 10.637ZM47.4486 38.573C46.7833 38.7088 46.0941 38.9042 46.0326 38.9746C46.0031 39.0083 45.8308 39.0855 45.6497 39.1462C43.9919 39.7019 42.1668 40.6827 40.6582 41.8284C39.9442 42.3707 38.7542 43.5019 38.1824 44.182C35.9658 46.8182 34.5959 50.0879 34.0746 53.9865C33.9245 55.109 33.8725 55.9708 33.8723 57.335C33.8722 58.5396 33.8875 58.8252 33.9838 59.4067C34.3246 61.4656 35.1599 63.3236 36.4963 64.9955C36.8926 65.4913 37.9582 66.5322 38.4792 66.9326C39.4754 67.6981 40.9283 68.4823 42.1205 68.8979C42.7765 69.1267 43.8034 69.3726 44.5602 69.4821C45.4033 69.6042 47.2581 69.6058 48.082 69.4852C49.4683 69.2823 50.6042 68.9418 51.832 68.3612C53.1431 67.7412 54.1136 67.0807 55.1209 66.123C57.0485 64.2904 58.2965 61.9186 58.7062 59.3097C58.8328 58.5039 58.8328 56.6927 58.7063 55.9137C58.287 53.3311 57.1276 51.0787 55.2735 49.2451C54.968 48.9429 54.6852 48.7002 54.6451 48.7058C54.605 48.7114 54.4273 48.8774 54.2501 49.0747C53.1739 50.2732 51.8933 50.8713 50.7568 50.7062C49.1067 50.4667 47.6108 48.9937 46.871 46.88C45.9359 44.2084 46.3736 41.2446 48.0563 38.8544L48.325 38.4727L48.1149 38.4763C47.9992 38.4782 47.6994 38.5218 47.4486 38.573ZM27.3441 98.0723C25.4169 98.3809 24.0351 100.162 24.3132 101.98C24.4861 103.11 25.2414 104.101 26.3105 104.6C26.5651 104.719 26.9216 104.854 27.1027 104.9C27.4137 104.98 28.4666 104.984 45.903 104.984H64.374L64.7771 104.874C66.0963 104.51 67.0625 103.561 67.3984 102.298C67.5356 101.782 67.5082 100.958 67.3379 100.48C66.9985 99.5264 66.3635 98.8333 65.4381 98.4062C64.525 97.9849 66.4397 98.0218 45.8672 98.0282C35.8115 98.0313 27.4761 98.0512 27.3441 98.0723ZM27.052 109.202C25.7845 109.514 24.8179 110.413 24.4102 111.659C24.2592 112.121 24.2481 112.958 24.3866 113.44C24.7094 114.564 25.6265 115.483 26.824 115.882L27.2294 116.018L45.751 116.031C66.5699 116.046 64.6083 116.082 65.4793 115.668C65.8624 115.486 66.0267 115.369 66.4071 115.008C66.7999 114.635 66.9043 114.501 67.1021 114.113C67.3922 113.544 67.4887 113.16 67.4897 112.568C67.4913 111.612 67.1495 110.847 66.403 110.138C65.9221 109.681 65.5621 109.466 64.906 109.241L64.5767 109.128L46.0044 109.118C27.7731 109.109 27.4251 109.11 27.052 109.202ZM35.6161 122.429C35.6161 122.547 36.186 123.579 36.532 124.088C38.3593 126.774 41.3714 128.571 44.6855 128.953C45.3204 129.026 46.5672 129.013 47.2793 128.925C50.9228 128.48 54.1776 126.248 55.8699 123.036C56.0459 122.702 56.19 122.411 56.19 122.391C56.19 122.37 51.5609 122.353 45.903 122.353C36.5733 122.353 35.6161 122.36 35.6161 122.429Z" fill="#4270CF"/>
</svg>
