<svg width="275" height="172" viewBox="0 0 275 172" fill="none" xmlns="http://www.w3.org/2000/svg">
<path d="M225.561 59.691L225.085 62.2213L227.628 62.623C253.029 66.6348 272.5 88.8707 272.5 115.738C272.5 145.457 248.684 169.5 219.365 169.5H55.6359C26.3158 169.5 2.5 145.457 2.5 115.738C2.5 86.0194 26.3158 61.9761 55.6359 61.9761H55.6421H58.1039L58.1418 59.5146C58.5457 33.2579 79.7129 12.1449 105.709 12.1449C117.342 12.1449 127.997 16.3671 136.267 23.3874L138.362 25.1665L139.935 22.9117C148.555 10.5527 162.768 2.5 178.829 2.5C205.077 2.5 226.402 24.0246 226.402 50.6355C226.402 53.733 226.113 56.7596 225.561 59.691Z" fill="white" stroke="black" stroke-width="5"/>
</svg>
